<svg viewBox="-49 141 512 512" xmlns="http://www.w3.org/2000/svg">
	<path d="M121.7,475H-27.7c-11.8,0-21.3-9.6-21.3-21.3c0-11.8,9.6-21.3,21.3-21.3h149.3c11.8,0,21.3,9.6,21.3,21.3 C143,465.4,133.4,475,121.7,475z"/>
	<path d="M207,368.3H-27.7c-11.8,0-21.3-9.6-21.3-21.3s9.6-21.3,21.3-21.3H207c11.8,0,21.3,9.6,21.3,21.3S218.8,368.3,207,368.3z"/>
	<path d="M121.7,261.7H-27.7c-11.8,0-21.3-9.6-21.3-21.3c0-11.8,9.6-21.3,21.3-21.3h149.3c11.8,0,21.3,9.6,21.3,21.3 C143,252.1,133.4,261.7,121.7,261.7z"/>
	<path d="M425.7,219H300.3c-20.6,0-37.3,16.7-37.3,37.3v125.3c0,20.6,16.7,37.3,37.3,37.3h125.3c20.6,0,37.3-16.7,37.3-37.3V256.3 C463,235.7,446.3,219,425.7,219z"/>
	<path d="M351.3,466.1l-69.3,74.7c-4.3,4.7-5.4,11.5-2.9,17.3c2.6,5.8,8.3,9.6,14.7,9.6h48v64c0,11.8,9.6,21.3,21.3,21.3 s21.3-9.5,21.3-21.3v-64h48c6.4,0,12.1-3.8,14.7-9.6c0.9-2.1,1.3-4.2,1.3-6.4c0-4-1.5-7.9-4.3-10.9l-69.3-74.7 c-3-3.2-7.3-5.1-11.7-5.1S354.3,462.9,351.3,466.1z"/>
</svg>