<svg viewBox="-49 141 512 512" xmlns="http://www.w3.org/2000/svg">
	<path d="M356.3,475H207c-11.8,0-21.3-9.6-21.3-21.3c0-11.8,9.6-21.3,21.3-21.3h149.3c11.8,0,21.3,9.6,21.3,21.3 C377.7,465.4,368.1,475,356.3,475z"/>
	<path d="M441.7,368.3H207c-11.8,0-21.3-9.6-21.3-21.3s9.6-21.3,21.3-21.3h234.7c11.8,0,21.3,9.6,21.3,21.3S453.4,368.3,441.7,368.3z"/>
	<path d="M356.3,261.6H207c-11.8,0-21.3-9.6-21.3-21.3c0-11.8,9.6-21.3,21.3-21.3h149.3c11.8,0,21.3,9.6,21.3,21.3 C377.7,252.1,368.1,261.6,356.3,261.6z"/>
	<path d="M113.7,219.1H-11.7c-20.6,0-37.3,16.7-37.3,37.3v125.3c0,20.6,16.7,37.3,37.3,37.3h125.3c20.6,0,37.3-16.7,37.3-37.3V256.4 C151,235.8,134.3,219.1,113.7,219.1z"/>
	<path d="M39.2,466.1l-69.3,74.7c-4.3,4.7-5.4,11.5-2.9,17.3c2.6,5.8,8.3,9.6,14.7,9.6h48v64c0,11.8,9.6,21.3,21.3,21.3 s21.3-9.5,21.3-21.3v-64h48c6.4,0,12.1-3.8,14.7-9.6c0.9-2.1,1.3-4.2,1.3-6.4c0-4-1.5-7.9-4.3-10.9l-69.3-74.7 c-3-3.2-7.3-5.1-11.7-5.1S42.2,462.9,39.2,466.1z"/>
</svg>